<svg width="28" height="28" viewBox="0 0 24 24" fill="none" xmlns="http://www.w3.org/2000/svg">
<path d="M22.4528 11.4717C22.1761 8.62893 21.0377 6.20755 19.0377 4.20755C17.0377 2.20755 14.6289 1.08176 11.8113 0.830189V0C13.3459 0.100629 14.7862 0.465409 16.1321 1.09434C17.478 1.72327 18.6604 2.55346 19.6792 3.58491C20.6981 4.61635 21.522 5.80503 22.1509 7.15094C22.7799 8.49686 23.1572 9.93711 23.283 11.4717H22.4528ZM16.3019 11.4717C16.0252 10.3396 15.4906 9.36478 14.6981 8.54717C13.9057 7.72956 12.9434 7.20755 11.8113 6.98113V6.15094C13.1698 6.37736 14.327 6.97484 15.283 7.9434C16.239 8.91195 16.8553 10.0881 17.1321 11.4717H16.3019ZM21.4717 24C19.0818 24 16.6164 23.3333 14.0755 22C11.5346 20.6667 9.22013 18.9623 7.13208 16.8868C5.04403 14.8113 3.33333 12.5094 2 9.98113C0.666667 7.45283 0 4.99371 0 2.60377C0 2.14015 0.154541 1.75381 0.463622 1.44476C0.772679 1.13567 1.15902 0.981132 1.62264 0.981132H4.37736C4.83019 0.981132 5.21384 1.11321 5.5283 1.37736C5.84277 1.64151 6.05031 2 6.15094 2.45283L6.86792 5.39623C6.9434 5.79874 6.93082 6.16352 6.83019 6.49057C6.72956 6.81761 6.5556 7.07965 6.3083 7.27668L3.09434 10.2264C4.60377 12.7421 6.25157 14.8805 8.03774 16.6415C9.8239 18.4025 11.9371 19.9497 14.3774 21.283L17.5094 18C17.761 17.7233 18.0314 17.5346 18.3208 17.434C18.6101 17.3333 18.9308 17.3208 19.283 17.3962L21.6226 17.9245C22.0833 18.0094 22.4438 18.2143 22.704 18.5391C22.9642 18.864 23.0943 19.2629 23.0943 19.7358V22.3774C23.0943 22.841 22.9398 23.2273 22.6307 23.5364C22.3217 23.8455 21.9353 24 21.4717 24ZM2.64151 9.50943L5.84906 6.60377C5.94969 6.50314 6.01887 6.36478 6.0566 6.18868C6.09434 6.01258 6.10063 5.84906 6.07547 5.69811L5.32076 2.41509C5.2956 2.21384 5.21384 2.06289 5.07547 1.96226C4.93711 1.86164 4.7673 1.81132 4.56604 1.81132H1.35849C1.20755 1.81132 1.08176 1.86164 0.981132 1.96226C0.880503 2.06289 0.830189 2.18868 0.830189 2.33962C0.779874 3.34591 0.924528 4.45912 1.26415 5.67925C1.60377 6.89937 2.06289 8.1761 2.64151 9.50943ZM15.1698 21.6226C16.2013 22.1761 17.3459 22.5786 18.6038 22.8302C19.8616 23.0818 20.9057 23.2075 21.7358 23.2075C21.8868 23.2075 22.0126 23.1572 22.1132 23.0566C22.2138 22.956 22.2642 22.8302 22.2642 22.6792V19.5094C22.2642 19.3082 22.2138 19.1384 22.1132 19C22.0126 18.8616 21.8616 18.7799 21.6604 18.7547L18.9811 18.1887C18.8302 18.1635 18.6981 18.1698 18.5849 18.2075C18.4717 18.2453 18.3522 18.3145 18.2264 18.4151L15.1698 21.6226Z" fill="#59D7EE"/>
</svg>
