<svg width="28" height="28" viewBox="0 0 24 24" fill="none" xmlns="http://www.w3.org/2000/svg">
<path d="M12 24C10.2989 24 8.71839 23.6897 7.25862 23.069C5.79885 22.4483 4.53448 21.6034 3.46552 20.5345C2.39655 19.4655 1.55172 18.2011 0.931035 16.7414C0.310345 15.2816 0 13.7011 0 12C0 10.2989 0.310345 8.71839 0.931035 7.25862C1.55172 5.79885 2.39655 4.53448 3.46552 3.46552C4.53448 2.39655 5.79885 1.55172 7.25862 0.931035C8.71839 0.310345 10.2989 0 12 0C13.7011 0 15.2816 0.310345 16.7414 0.931035C18.2011 1.55172 19.4655 2.39655 20.5345 3.46552C21.6034 4.53448 22.4483 5.79885 23.069 7.25862C23.6897 8.71839 24 10.2989 24 12V13.1034C24 14.2069 23.6264 15.1264 22.8793 15.8621C22.1322 16.5977 21.2069 16.9655 20.1034 16.9655C19.1609 16.9655 18.3851 16.7241 17.7759 16.2414C17.1667 15.7586 16.7356 15.092 16.4828 14.2414C16 15.046 15.431 15.7011 14.7759 16.2069C14.1207 16.7126 13.1954 16.9655 12 16.9655C10.6207 16.9655 9.44828 16.4828 8.48276 15.5172C7.51724 14.5517 7.03448 13.3793 7.03448 12C7.03448 10.5977 7.51724 9.41954 8.48276 8.46552C9.44828 7.51149 10.6207 7.03448 12 7.03448C13.3793 7.03448 14.5517 7.51149 15.5172 8.46552C16.4828 9.41954 16.9655 10.5977 16.9655 12V13.1034C16.9655 13.954 17.2701 14.6839 17.8793 15.2931C18.4885 15.9023 19.2299 16.2069 20.1034 16.2069C20.977 16.2069 21.7184 15.9023 22.3276 15.2931C22.9368 14.6839 23.2414 13.954 23.2414 13.1034V12C23.2414 8.91954 22.1379 6.27586 19.931 4.06897C17.7241 1.86207 15.0805 0.758621 12 0.758621C8.91954 0.758621 6.27586 1.86207 4.06897 4.06897C1.86207 6.27586 0.758621 8.91954 0.758621 12C0.758621 15.0805 1.86207 17.7241 4.06897 19.931C6.27586 22.1379 8.91954 23.2414 12 23.2414H19.0345V24H12ZM12 16.2069C13.1724 16.2069 14.1667 15.7989 14.9828 14.9828C15.7989 14.1667 16.2069 13.1724 16.2069 12C16.2069 10.8276 15.7989 9.83333 14.9828 9.01724C14.1667 8.20115 13.1724 7.7931 12 7.7931C10.8276 7.7931 9.83333 8.20115 9.01724 9.01724C8.20115 9.83333 7.7931 10.8276 7.7931 12C7.7931 13.1724 8.20115 14.1667 9.01724 14.9828C9.83333 15.7989 10.8276 16.2069 12 16.2069Z" fill="#59D7EE"/>
</svg>
