<svg width="23" height="28" viewBox="0 0 19 24" fill="none" xmlns="http://www.w3.org/2000/svg">
<path d="M9.36092 10.9814C9.80466 10.9814 10.1857 10.8213 10.504 10.5011C10.8223 10.181 10.9814 9.79901 10.9814 9.35526C10.9814 8.91152 10.8213 8.5305 10.5011 8.2122C10.181 7.8939 9.79901 7.73475 9.35526 7.73475C8.91152 7.73475 8.5305 7.89484 8.2122 8.21503C7.8939 8.5352 7.73475 8.91717 7.73475 9.36092C7.73475 9.80466 7.89484 10.1857 8.21503 10.504C8.5352 10.8223 8.91717 10.9814 9.36092 10.9814ZM9.35809 23.0133C12.0955 20.6578 14.2228 18.2493 15.7401 15.7878C17.2573 13.3263 18.0159 11.2679 18.0159 9.61273C18.0159 7.00711 17.1852 4.87029 15.5239 3.20228C13.8625 1.53427 11.8073 0.700265 9.35809 0.700265C6.90892 0.700265 4.85367 1.53427 3.19232 3.20228C1.53095 4.87029 0.700265 7.00711 0.700265 9.61273C0.700265 11.2679 1.46419 13.3263 2.99204 15.7878C4.51989 18.2493 6.64191 20.6578 9.35809 23.0133ZM9.35809 24C6.19629 21.1565 3.84615 18.5199 2.30769 16.0902C0.769231 13.6605 0 11.5013 0 9.61273C0 6.68435 0.944297 4.35013 2.83289 2.61008C4.72149 0.870027 6.89655 0 9.35809 0C11.8196 0 13.9947 0.870027 15.8833 2.61008C17.7719 4.35013 18.7162 6.68435 18.7162 9.61273C18.7162 11.5013 17.9469 13.6605 16.4085 16.0902C14.87 18.5199 12.5199 21.1565 9.35809 24Z" fill="#59D7EE"/>
</svg>
