<svg width="0" height="0" class="hidden">
  <symbol fill="none" xmlns="http://www.w3.org/2000/svg" viewBox="0 0 512 449" id="logo-monogram">
    <g id="logo-monogram">
      <g id="logo--monogram-flatten-letters">
        <path d="M158.388 377.554C187.447 377.554 213.129 377.349 235.434 376.94C257.944 376.531 275.133 375.201 287.002 372.95V448.153H0C2.251 435.875 3.58114 418.174 3.99041 395.05C4.39968 371.722 4.60432 344.914 4.60432 314.628V133.525C4.60432 103.239 4.39968 76.534 3.99041 53.4101C3.58114 30.0815 2.251 12.2782 0 0H92.0863V377.554H158.388Z" fill="white"></path>
        <path d="M232.671 192.767L384.307 0H487.444L298.667 211.185L512 448.153H398.427L232.671 246.791V448.153H140.585C142.836 435.875 144.166 418.174 144.576 395.05C144.985 371.722 145.189 344.914 145.189 314.628V133.525C145.189 103.239 144.985 76.534 144.576 53.4101C144.166 30.0815 142.836 12.2782 140.585 0H232.671V192.767Z" fill="#59D7EE"></path>
      </g>
    </g>
  </symbol>
  <symbol fill="none" xmlns="http://www.w3.org/2000/svg" viewBox="0 0 221 39" id="logo-full-name">
    <g id="logo-full-name">
      <path id="Lancz" d="M11.9863 29.957C13.6504 29.957 15.1211 29.9453 16.3984 29.9219C17.6875 29.8984 18.6719 29.8223 19.3516 29.6934V34H2.91602C3.04492 33.2969 3.12109 32.2832 3.14453 30.959C3.16797 29.623 3.17969 28.0879 3.17969 26.3535V15.9824C3.17969 14.248 3.16797 12.7187 3.14453 11.3945C3.12109 10.0586 3.04492 9.03906 2.91602 8.33594H8.18945V29.957H11.9863ZM34.5566 20.0078C34.3105 19.9492 33.9531 19.8789 33.4844 19.7969C33.0156 19.7031 32.4062 19.6562 31.6562 19.6562C30.7305 19.6562 29.957 19.8555 29.3359 20.2539C28.7148 20.6523 28.2168 21.1855 27.8418 21.8535C27.4785 22.5215 27.2148 23.2832 27.0508 24.1387C26.8984 24.9941 26.8223 25.8789 26.8223 26.793C26.8223 27.3086 26.8691 27.7773 26.9629 28.1992C27.0684 28.6211 27.209 28.9844 27.3848 29.2891C27.5605 29.5938 27.7656 29.834 28 30.0098C28.2344 30.1738 28.4863 30.2559 28.7559 30.2559C29.1895 30.2559 29.6348 30.0801 30.0918 29.7285C30.5488 29.3652 30.9883 28.9023 31.4102 28.3398C31.8438 27.7773 32.248 27.1504 32.623 26.459C33.0098 25.7676 33.3438 25.0879 33.625 24.4199C33.918 23.7402 34.1465 23.1133 34.3105 22.5391C34.4746 21.9648 34.5566 21.5078 34.5566 21.168V20.0078ZM36.0508 34C35.9219 33.7891 35.7988 33.4668 35.6816 33.0332C35.5645 32.5879 35.459 32.1133 35.3652 31.6094C35.2832 31.0938 35.2129 30.5898 35.1543 30.0977C35.1074 29.5938 35.084 29.1777 35.084 28.8496V27.8477C34.709 28.6094 34.2578 29.3828 33.7305 30.168C33.2148 30.9414 32.623 31.6445 31.9551 32.2773C31.2871 32.9102 30.5488 33.4316 29.7402 33.8418C28.9434 34.2402 28.0879 34.4395 27.1738 34.4395C26.4355 34.4395 25.7441 34.2754 25.0996 33.9473C24.4551 33.6191 23.8926 33.1328 23.4121 32.4883C22.9434 31.8438 22.5742 31.0469 22.3047 30.0977C22.0352 29.1367 21.9004 28.0352 21.9004 26.793C21.9004 25.3984 22.1055 24.0391 22.5156 22.7148C22.9258 21.3789 23.5586 20.1953 24.4141 19.1641C25.2695 18.1211 26.3594 17.2891 27.6836 16.668C29.0078 16.0352 30.5781 15.7188 32.3945 15.7188C33.6719 15.7188 34.9375 15.7949 36.1914 15.9473C37.4453 16.0879 38.5762 16.2754 39.584 16.5098V24.6836C39.584 26.8984 39.6895 28.7617 39.9004 30.2734C40.1113 31.7734 40.3867 33.0156 40.7266 34H36.0508ZM56.9863 34V24.332C56.9863 23.5234 56.9336 22.8438 56.8281 22.293C56.7227 21.7422 56.5586 21.3027 56.3359 20.9746C56.1133 20.6348 55.8262 20.3945 55.4746 20.2539C55.1348 20.1016 54.7305 20.0254 54.2617 20.0254C53.7578 20.0254 53.2656 20.1367 52.7852 20.3594C52.3047 20.582 51.8594 20.875 51.4492 21.2383C51.0391 21.6016 50.6816 22.0059 50.377 22.4512C50.0723 22.8965 49.8438 23.3477 49.6914 23.8047V34H44.7695V23.1895C44.7695 21.4551 44.6699 19.9902 44.4707 18.7949C44.2832 17.5879 44.0898 16.6797 43.8906 16.0703H48.7246C48.7949 16.2461 48.8652 16.4805 48.9355 16.7734C49.0059 17.0547 49.0703 17.3535 49.1289 17.6699C49.1875 17.9746 49.2402 18.2793 49.2871 18.584L49.4277 19.3223C49.9902 18.6895 50.541 18.1445 51.0801 17.6875C51.6191 17.2305 52.1641 16.8555 52.7148 16.5625C53.2656 16.2695 53.8281 16.0586 54.4023 15.9297C54.9766 15.7891 55.5742 15.7188 56.1953 15.7188C57.0859 15.7188 57.8828 15.8711 58.5859 16.1758C59.3008 16.4805 59.9043 16.9375 60.3965 17.5469C60.8887 18.1562 61.2637 18.918 61.5215 19.832C61.7793 20.7461 61.9082 21.8066 61.9082 23.0137V34H56.9863ZM79.5566 21.3965C79.1582 21.127 78.7773 20.8926 78.4141 20.6934C78.0625 20.4824 77.7051 20.3125 77.3418 20.1836C76.9902 20.043 76.6211 19.9375 76.2344 19.8672C75.8477 19.7969 75.4258 19.7617 74.9688 19.7617C74.3594 19.7617 73.791 19.8848 73.2637 20.1309C72.7363 20.377 72.2734 20.7344 71.875 21.2031C71.4883 21.6719 71.1836 22.2461 70.9609 22.9258C70.7383 23.5938 70.627 24.3555 70.627 25.2109C70.627 25.9844 70.7266 26.6934 70.9258 27.3379C71.1367 27.9707 71.4297 28.5156 71.8047 28.9727C72.1797 29.418 72.6367 29.7695 73.1758 30.0273C73.7148 30.2734 74.3125 30.3965 74.9688 30.3965C75.4961 30.3965 75.9824 30.3555 76.4277 30.2734C76.873 30.1797 77.2949 30.0508 77.6934 29.8867C78.0918 29.7227 78.4727 29.5234 78.8359 29.2891C79.2109 29.0547 79.5918 28.7852 79.9785 28.4805L80.5059 32.7695C80.0605 33.0391 79.6094 33.2793 79.1523 33.4902C78.6953 33.7012 78.2148 33.877 77.7109 34.0176C77.207 34.1582 76.6738 34.2637 76.1113 34.334C75.5488 34.4043 74.9395 34.4395 74.2832 34.4395C73.0996 34.4395 71.9863 34.2402 70.9434 33.8418C69.9004 33.4434 68.9922 32.8574 68.2188 32.084C67.4453 31.3105 66.8301 30.3613 66.373 29.2363C65.9277 28.1113 65.7051 26.8281 65.7051 25.3867C65.7051 24.0156 65.9219 22.7441 66.3555 21.5723C66.7891 20.3887 67.4043 19.3633 68.2012 18.4961C68.998 17.6289 69.959 16.9492 71.084 16.457C72.2207 15.9648 73.4863 15.7188 74.8809 15.7188C76.0527 15.7188 77.0898 15.8418 77.9922 16.0879C78.9062 16.334 79.6855 16.627 80.3301 16.9668L79.5566 21.3965ZM98.9629 16.0703V18.6016L89.6465 30.2207H95.3594C95.9922 30.2207 96.6309 30.209 97.2754 30.1855C97.9316 30.1621 98.582 30.0859 99.2266 29.957V34H83.7578V31.2051L92.8984 19.8496H87.0098C86.4824 19.8496 85.9785 19.8613 85.498 19.8848C85.0176 19.9082 84.6133 19.9844 84.2852 20.1133V16.0703H98.9629Z" fill="white"></path>
      <path id="KLÍMA" d="M116.632 34V8.44H117.892V24.532L133.516 8.44H135.064L124.3 19.636L135.568 34H134.092L123.436 20.428L117.892 26.08V34H116.632ZM139.202 34V8.44H140.462V32.848H156.122V34H139.202ZM160.085 34V8.44H161.345V34H160.085ZM161.093 4.264L160.229 3.796L162.461 0.951998H164.081L161.093 4.264ZM191.821 34V10.96L181.093 29.068H180.229L169.501 10.96V34H168.241V8.44H169.393L180.661 27.448L191.929 8.44H193.081V34H191.821ZM208.123 8.44H209.203L220.183 34H218.851L215.071 25.18H202.255L198.475 34H197.107L208.123 8.44ZM214.675 24.1L208.663 10.024L202.615 24.1H214.675Z" fill="#59D7EE"></path>
    </g>
  </symbol>
</svg>