<svg width="131" height="36" viewBox="0 0 131 36" fill="none" xmlns="http://www.w3.org/2000/svg">
<path d="M12.9453 29.6094C15.1641 29.6094 17.125 29.5938 18.8281 29.5625C20.5469 29.5312 21.8594 29.4297 22.7656 29.2578V35H0.851562C1.02344 34.0625 1.125 32.7109 1.15625 30.9453C1.1875 29.1641 1.20312 27.1172 1.20312 24.8047V10.9766C1.20312 8.66406 1.1875 6.625 1.15625 4.85938C1.125 3.07812 1.02344 1.71875 0.851562 0.78125H7.88281V29.6094H12.9453ZM30.1484 21.6406H39.7578L34.9297 6.21875L30.1484 21.6406ZM41.3516 26.6797H28.6016L26.0234 35H19.0391C19.2422 34.5312 19.4453 34.0391 19.6484 33.5234C19.8672 33.0078 20.0938 32.4297 20.3281 31.7891C20.5625 31.1484 20.8203 30.4141 21.1016 29.5859C21.3828 28.7578 21.7109 27.7891 22.0859 26.6797L30.7578 0.78125H39.1016L47.7734 26.6797C48.1484 27.7734 48.4766 28.7344 48.7578 29.5625C49.0391 30.3906 49.2969 31.1328 49.5312 31.7891C49.7812 32.4297 50.0078 33.0078 50.2109 33.5234C50.4141 34.0391 50.6172 34.5312 50.8203 35H43.9531L41.3516 26.6797ZM56.6094 11.4219V35H50.1641C50.3359 34.0625 50.4375 32.7109 50.4688 30.9453C50.5 29.1641 50.5156 27.1172 50.5156 24.8047V10.9766C50.5156 8.66406 50.5 6.625 50.4688 4.85938C50.4375 3.07812 50.3359 1.71875 50.1641 0.78125H56.6094L72.3125 24.3828V0.78125H78.7578C78.6797 1.25 78.6172 1.82813 78.5703 2.51562C78.5234 3.20312 78.4844 3.98438 78.4531 4.85938C78.4375 5.71875 78.4219 6.66406 78.4062 7.69531C78.4062 8.72656 78.4062 9.82031 78.4062 10.9766V35H72.3125L56.6094 11.4219ZM106.531 31.7188C105.812 32.2969 104.969 32.8281 104 33.3125C103.047 33.7812 102.039 34.1875 100.977 34.5312C99.9141 34.8594 98.8281 35.1172 97.7188 35.3047C96.625 35.4922 95.5781 35.5859 94.5781 35.5859C92.1562 35.5859 89.9766 35.1875 88.0391 34.3906C86.1172 33.5781 84.4844 32.4297 83.1406 30.9453C81.7969 29.4453 80.7656 27.6328 80.0469 25.5078C79.3438 23.3828 78.9922 21 78.9922 18.3594C78.9922 16.3438 79.1875 14.5 79.5781 12.8281C79.9844 11.1406 80.5469 9.625 81.2656 8.28125C82 6.9375 82.8672 5.76563 83.8672 4.76562C84.8672 3.75 85.9688 2.90625 87.1719 2.23438C88.3906 1.54688 89.6797 1.03906 91.0391 0.710938C92.4141 0.367187 93.8281 0.195312 95.2812 0.195312C96.3594 0.195312 97.375 0.257813 98.3281 0.382812C99.2812 0.492188 100.195 0.679688 101.07 0.945312C101.961 1.19531 102.82 1.53125 103.648 1.95312C104.492 2.35937 105.336 2.86719 106.18 3.47656L104.539 9.10156C103.039 7.92969 101.562 7.09375 100.109 6.59375C98.6719 6.07812 97.1797 5.82031 95.6328 5.82031C94.2109 5.82031 92.8906 6.07031 91.6719 6.57031C90.4531 7.07031 89.3984 7.82031 88.5078 8.82031C87.6172 9.82031 86.9219 11.0703 86.4219 12.5703C85.9219 14.0547 85.6719 15.7891 85.6719 17.7734C85.6719 19.6641 85.8906 21.3594 86.3281 22.8594C86.7812 24.3438 87.4219 25.6094 88.25 26.6562C89.0938 27.6875 90.1172 28.4766 91.3203 29.0234C92.5234 29.5703 93.8828 29.8438 95.3984 29.8438C96.2734 29.8438 97.1641 29.7422 98.0703 29.5391C98.9766 29.3359 99.8594 29.0469 100.719 28.6719C101.594 28.2812 102.422 27.8203 103.203 27.2891C104 26.7578 104.719 26.1641 105.359 25.5078L106.531 31.7188ZM129.969 4.88281L113.094 29.6094H120.477C122.773 29.6094 124.812 29.5781 126.594 29.5156C128.375 29.4375 129.734 29.3125 130.672 29.1406V35H104.891V31.25L121.953 6.17188H116.492C115.227 6.17188 114.078 6.17969 113.047 6.19531C112.016 6.19531 111.086 6.21875 110.258 6.26562C109.43 6.29687 108.688 6.34375 108.031 6.40625C107.391 6.46875 106.812 6.54688 106.297 6.64062V0.78125H129.969V4.88281Z" fill="#535353" fill-opacity="0.2"/>
</svg>
